<?xml version="1.0" standalone="no"?>
<!DOCTYPE svg PUBLIC "-//W3C//DTD SVG 20010904//EN"
 "http://www.w3.org/TR/2001/REC-SVG-20010904/DTD/svg10.dtd">
<svg version="1.0" xmlns="http://www.w3.org/2000/svg"
 width="512.000000pt" height="512.000000pt" viewBox="0 0 512.000000 512.000000"
 preserveAspectRatio="xMidYMid meet">
<metadata>
Created by potrace 1.14, written by Peter Selinger 2001-2017
</metadata>
<g transform="translate(0.000000,512.000000) scale(0.100000,-0.100000)"
fill="#000000" stroke="none">
<path d="M1815 4941 c-158 -45 -270 -140 -342 -291 -72 -151 -76 -159 -115
-207 -103 -123 -224 -182 -413 -198 -78 -6 -100 -11 -163 -34 -200 -73 -341
-276 -343 -491 0 -36 9 -108 21 -160 36 -161 24 -278 -43 -404 -29 -56 -87
-121 -194 -219 -175 -161 -209 -457 -75 -662 37 -58 66 -89 161 -171 77 -68
149 -197 166 -299 13 -80 7 -183 -15 -249 -37 -115 -23 -264 37 -386 84 -172
248 -279 453 -296 136 -12 229 -44 315 -110 83 -63 113 -103 179 -239 68 -139
117 -203 200 -264 172 -126 407 -133 596 -17 86 53 120 68 190 87 131 35 311
5 423 -71 105 -71 212 -102 332 -99 224 8 407 148 495 379 36 93 114 187 204
245 92 58 158 78 303 90 134 11 242 62 338 159 133 135 187 335 138 511 -34
124 -33 222 4 338 28 88 66 141 184 257 91 90 123 129 148 180 76 158 74 335
-6 495 -16 32 -63 87 -133 155 -59 58 -121 125 -137 150 -87 130 -107 295 -58
464 21 70 13 234 -14 305 -65 171 -200 295 -369 340 -22 7 -71 14 -109 17
-252 19 -410 133 -507 366 -38 91 -77 147 -143 208 -129 118 -308 165 -478
125 -64 -15 -94 -28 -217 -99 -78 -45 -157 -68 -243 -71 -123 -5 -210 20 -336
96 -102 61 -169 82 -279 85 -67 2 -113 -3 -155 -15z"/>
</g>
</svg>
